<?xml version="1.0" standalone="no"?>
<!DOCTYPE svg PUBLIC "-//W3C//DTD SVG 20010904//EN"
 "http://www.w3.org/TR/2001/REC-SVG-20010904/DTD/svg10.dtd">
<svg version="1.0" xmlns="http://www.w3.org/2000/svg"
 width="773.000000pt" height="102.000000pt" viewBox="0 0 773.000000 102.000000"
 preserveAspectRatio="xMidYMid meet">

<g transform="translate(0.000000,102.000000) scale(0.100000,-0.100000)"
fill="#000000" stroke="none">
<path d="M0 510 l0 -510 3865 0 3865 0 0 510 0 510 -3865 0 -3865 0 0 -510z
m754 350 l29 -11 -49 -34 c-37 -26 -59 -35 -90 -35 -143 0 -254 -113 -254
-259 0 -80 23 -134 79 -190 64 -64 159 -85 257 -56 151 45 224 225 148 365
-37 67 -84 106 -113 91 -45 -24 -101 -128 -101 -187 0 -21 -5 -24 -36 -24
l-37 0 6 55 c14 136 137 261 281 283 161 25 318 -65 377 -216 20 -51 23 -80
27 -262 3 -139 8 -207 16 -212 6 -4 -13 -8 -41 -8 l-53 0 0 203 c0 241 -8 276
-80 347 -51 52 -117 80 -187 80 l-44 0 35 -46 c56 -74 78 -145 74 -239 -6
-141 -77 -247 -208 -309 l-65 -31 -195 -2 c-181 -2 -191 -1 -133 11 35 7 66
16 70 19 3 4 -21 31 -54 61 -87 79 -118 151 -118 271 0 107 19 157 87 231 54
58 103 90 171 109 56 16 153 14 201 -5z m5086 -80 l0 -100 -250 0 c-236 0
-250 -1 -260 -19 -19 -36 -12 -41 55 -41 l65 0 0 -100 0 -100 -165 0 -165 0 0
175 c0 288 -6 284 428 285 l292 0 0 -100z m-4422 4 c42 -29 17 -104 -35 -104
-20 0 -53 38 -53 60 0 20 36 60 55 60 6 0 21 -7 33 -16z m3232 -199 c27 27 53
46 57 42 4 -4 -15 -30 -42 -57 l-49 -50 47 -48 c26 -27 44 -51 40 -55 -4 -4
-28 14 -55 40 l-48 47 -48 -47 c-27 -26 -51 -44 -55 -40 -4 4 14 28 40 55 l47
48 -47 48 c-26 27 -44 51 -40 55 4 4 28 -14 55 -40 l48 -47 50 49z m1550 25
c0 -18 -7 -20 -75 -20 l-75 0 0 -34 0 -33 67 -6 c75 -6 93 -20 93 -74 0 -56
-27 -73 -115 -73 -60 0 -75 3 -75 15 0 12 14 15 69 15 76 0 97 13 87 54 -6 26
-30 36 -91 36 -52 0 -65 14 -65 66 0 59 24 74 112 74 61 0 68 -2 68 -20z m573
1 c24 -19 25 -241 2 -241 -12 0 -15 19 -15 110 l0 110 -50 0 -50 0 0 -110 c0
-91 -3 -110 -15 -110 -12 0 -15 19 -15 110 l0 110 -55 0 -55 0 0 -110 c0 -91
-3 -110 -15 -110 -13 0 -15 20 -15 123 0 68 3 127 7 131 14 14 258 2 276 -13z
m488 -10 c16 -19 19 -40 19 -127 0 -86 -3 -104 -15 -104 -12 0 -15 17 -15 94
0 52 -3 101 -6 110 -5 12 -21 16 -70 16 l-64 0 0 -110 c0 -91 -3 -110 -15
-110 -13 0 -15 21 -15 131 l0 131 81 -4 c70 -3 83 -6 100 -27z m232 10 c24
-19 25 -241 2 -241 -12 0 -15 19 -15 110 l0 110 -65 0 -65 0 0 -110 c0 -91 -3
-110 -15 -110 -13 0 -15 21 -15 131 l0 131 78 -3 c47 -3 86 -10 95 -18z m87
-112 c0 -100 -3 -130 -12 -127 -9 3 -14 38 -16 118 -3 117 0 140 18 140 6 0
10 -48 10 -131z m-1740 -52 c0 -194 -8 -225 -71 -262 -32 -19 -55 -20 -341
-23 l-308 -4 0 101 0 101 244 0 c209 0 247 2 260 16 33 32 20 44 -49 44 l-65
0 0 100 0 100 165 0 165 0 0 -173z m569 52 c39 -112 45 -147 21 -123 -5 5 -16
27 -23 49 -13 38 -16 40 -58 40 -43 0 -43 0 -58 -47 -8 -27 -20 -48 -28 -48
-7 0 -13 4 -13 8 0 7 58 183 75 230 2 6 13 12 23 12 14 0 27 -25 61 -121z
m586 4 c22 -64 42 -120 43 -125 2 -4 -3 -8 -11 -8 -10 0 -22 20 -32 50 -16 50
-17 50 -60 50 -42 0 -43 -1 -55 -45 -13 -45 -26 -63 -37 -51 -3 3 7 45 22 93
64 198 74 201 130 36z m-3805 37 c0 -19 -7 -20 -155 -20 -148 0 -155 1 -155
20 0 19 7 20 155 20 148 0 155 -1 155 -20z m-1455 -100 c43 -27 65 -70 65
-128 0 -66 -30 -110 -93 -136 -42 -18 -53 -19 -95 -7 -57 15 -99 52 -114 102
-40 136 113 246 237 169z m365 -121 l0 -150 -27 3 c-20 2 -46 25 -98 87 l-70
84 -3 -86 -3 -87 -29 0 -30 0 0 145 0 145 25 0 c18 0 41 -20 92 -81 l68 -81 3
73 c3 94 5 99 42 99 l30 0 0 -151z m110 31 l0 -120 110 0 110 0 0 -30 0 -30
-140 0 -140 0 0 150 0 150 30 0 30 0 0 -120z m333 60 c16 -30 32 -59 37 -63 4
-5 22 21 41 57 29 57 38 66 62 66 15 0 27 -5 27 -11 0 -6 -22 -52 -50 -103
-40 -73 -50 -103 -50 -139 0 -46 -1 -47 -30 -47 -29 0 -30 2 -30 46 0 37 -11
66 -50 139 -27 51 -50 98 -50 104 0 8 12 11 32 9 26 -3 36 -11 61 -58z m576
34 c90 -54 94 -200 7 -253 -129 -78 -279 29 -237 170 12 40 61 88 103 101 32
10 96 0 127 -18z m613 16 c37 -11 88 -60 88 -86 0 -23 -49 -16 -82 11 -34 29
-46 30 -93 11 -72 -31 -67 -141 8 -165 39 -13 72 -4 101 28 19 21 60 28 70 13
3 -5 -4 -23 -15 -41 -20 -34 -87 -70 -128 -71 -39 0 -111 40 -132 74 -37 60
-17 165 38 202 50 32 90 39 145 24z m-377 -87 l70 -86 3 87 3 86 29 0 30 0 0
-145 0 -145 -24 0 c-19 0 -43 21 -98 87 l-73 86 -3 -86 -3 -87 -29 0 -30 0 0
145 0 145 28 -1 c22 0 41 -17 97 -86z m725 57 l0 -30 -75 0 c-73 0 -75 -1 -75
-25 0 -23 3 -24 68 -27 65 -3 67 -4 70 -30 l3 -28 -70 0 -71 0 0 -30 0 -30 75
0 75 0 0 -30 0 -30 -110 0 -110 0 0 138 c0 76 3 142 7 145 3 4 53 7 110 7
l103 0 0 -30z m2068 -145 c3 -3 -4 -5 -16 -5 -12 0 -22 -4 -22 -10 0 -5 10
-10 23 -10 18 0 19 -2 7 -11 -11 -8 -12 -12 -2 -16 24 -10 11 -23 -23 -23 -24
0 -35 -5 -35 -14 0 -8 -4 -18 -10 -21 -6 -3 -7 1 -4 10 5 11 2 14 -10 9 -9 -3
-16 -10 -16 -15 0 -5 -4 -9 -9 -9 -5 0 -8 19 -7 43 1 41 2 42 39 45 20 2 37 8
37 13 0 5 -10 9 -22 8 -13 -1 -32 -1 -43 0 -17 3 -16 4 5 10 26 7 100 4 108
-4z m1050 -5 c36 0 21 -24 -19 -30 -22 -3 -30 -8 -21 -13 7 -5 22 -5 35 -2 18
6 20 5 10 -6 -10 -10 -9 -16 4 -31 10 -11 12 -18 4 -18 -6 0 -14 7 -17 15 -9
22 -24 18 -24 -5 0 -16 -6 -20 -33 -17 -34 2 -46 24 -23 39 20 14 31 8 13 -6
-16 -12 -16 -14 -1 -20 23 -9 34 -7 34 4 0 5 -8 6 -17 3 -15 -6 -16 -4 -5 9
15 19 2 31 -25 22 -11 -3 -9 0 6 9 23 14 23 14 2 20 -29 7 -26 27 4 27 14 0
25 5 25 12 0 9 3 9 12 0 7 -7 23 -12 36 -12z m-783 -39 c0 -36 -4 -51 -15 -54
-12 -3 -15 7 -15 50 0 40 4 53 15 53 11 0 15 -12 15 -49z m79 12 c11 -69 8
-83 -16 -82 -17 1 -19 2 -5 6 29 7 19 23 -15 25 l-33 1 33 4 c40 5 42 23 2 23
-30 0 -42 21 -20 35 6 3 10 -1 10 -9 0 -9 7 -16 15 -16 8 0 15 9 15 19 0 14
-8 21 -27 24 -27 4 -27 4 3 6 29 1 32 -2 38 -36z m366 17 c0 -16 -7 -20 -35
-20 -28 0 -35 -4 -35 -20 0 -20 20 -19 48 3 7 5 15 7 18 4 4 -3 -10 -14 -30
-23 -20 -10 -36 -21 -36 -26 0 -13 58 -9 63 5 2 6 8 9 12 5 15 -14 -8 -28 -46
-28 -39 0 -39 0 -39 40 0 22 -4 40 -9 40 -5 0 -11 -18 -15 -40 -3 -22 -11 -40
-16 -40 -7 0 -7 6 0 19 5 11 10 38 10 60 l0 41 55 0 c48 0 55 -2 55 -20z m712
-27 c2 -27 -1 -51 -6 -55 -7 -5 -6 -8 3 -8 8 0 11 -3 8 -6 -4 -4 -20 -1 -37 6
-23 10 -34 10 -43 1 -6 -6 -20 -11 -31 -10 -21 0 -21 0 -1 9 17 7 17 9 3 9
-19 1 -26 21 -8 21 6 0 10 18 10 40 l0 40 49 0 49 0 4 -47z"/>
<path d="M5223 776 c-28 -24 -28 -26 -31 -155 l-4 -131 96 0 96 0 0 30 0 30
-65 0 -65 0 0 71 c0 68 11 106 34 121 6 4 118 8 249 8 l237 0 0 25 0 25 -259
0 -260 0 -28 -24z"/>
<path d="M1373 763 c-7 -3 -13 -13 -13 -23 0 -19 17 -30 38 -23 6 3 12 13 12
23 0 19 -17 30 -37 23z"/>
<path d="M5580 520 l0 -30 65 0 65 0 0 -74 c0 -59 -4 -78 -21 -100 l-20 -26
-240 0 -239 0 0 -25 0 -25 255 0 255 0 32 29 33 29 3 126 4 126 -96 0 -96 0 0
-30z"/>
<path d="M6331 538 c-6 -17 -11 -33 -11 -34 0 -2 13 -4 29 -4 29 0 30 1 19 30
-14 42 -24 45 -37 8z"/>
<path d="M6926 557 c-3 -14 -9 -32 -12 -41 -5 -12 0 -16 20 -16 30 0 31 5 12
50 l-13 32 -7 -25z"/>
<path d="M1614 400 c-59 -24 -72 -104 -25 -151 37 -37 82 -39 116 -5 48 48 40
122 -16 151 -31 17 -44 18 -75 5z"/>
<path d="M3004 400 c-32 -13 -54 -50 -54 -91 0 -29 7 -43 31 -63 52 -44 118
-26 139 38 23 72 -49 144 -116 116z"/>
<path d="M6042 225 c0 -16 2 -22 5 -12 2 9 2 23 0 30 -3 6 -5 -1 -5 -18z"/>
<path d="M6060 233 c0 -15 16 -18 25 -3 3 5 12 7 20 3 8 -3 15 0 15 5 0 6 -13
10 -30 10 -18 -1 -30 -6 -30 -15z"/>
<path d="M7133 263 c15 -2 39 -2 55 0 15 2 2 4 -28 4 -30 0 -43 -2 -27 -4z"/>
<path d="M6760 270 c0 -5 20 -10 45 -10 25 0 45 5 45 10 0 6 -20 10 -45 10
-25 0 -45 -4 -45 -10z"/>
<path d="M7498 273 c12 -2 30 -2 40 0 9 3 -1 5 -23 4 -22 0 -30 -2 -17 -4z"/>
<path d="M7498 253 c12 -2 30 -2 40 0 9 3 -1 5 -23 4 -22 0 -30 -2 -17 -4z"/>
<path d="M7498 233 c12 -2 30 -2 40 0 9 3 -1 5 -23 4 -22 0 -30 -2 -17 -4z"/>
<path d="M7498 213 c12 -2 30 -2 40 0 9 3 -1 5 -23 4 -22 0 -30 -2 -17 -4z"/>
</g>
</svg>
