<?xml version="1.0" standalone="no"?>
<!DOCTYPE svg PUBLIC "-//W3C//DTD SVG 20010904//EN"
 "http://www.w3.org/TR/2001/REC-SVG-20010904/DTD/svg10.dtd">
<svg version="1.0" xmlns="http://www.w3.org/2000/svg"
 width="773.000000pt" height="102.000000pt" viewBox="0 0 773.000000 102.000000"
 preserveAspectRatio="xMidYMid meet">

<g transform="translate(0.000000,102.000000) scale(0.100000,-0.100000)"
fill="#000000" stroke="none">
<path d="M400 881 c-94 -29 -178 -104 -221 -196 -68 -144 -24 -328 101 -424
25 -18 45 -39 45 -45 0 -6 -25 -16 -55 -23 -49 -11 -35 -12 125 -10 221 3 267
17 356 106 127 128 140 323 29 469 l-40 52 45 0 c70 0 147 -34 195 -86 70 -76
74 -92 78 -332 l4 -212 36 0 37 0 -5 217 c-5 213 -6 219 -34 280 -33 73 -103
144 -174 176 -37 17 -66 22 -137 22 -78 0 -97 -4 -146 -27 -103 -51 -179 -153
-195 -260 l-6 -48 35 0 c32 0 35 3 42 38 14 79 82 182 119 182 22 0 78 -64
102 -115 59 -125 6 -277 -118 -339 -106 -53 -248 -25 -318 64 -134 169 -31
408 183 428 45 4 71 13 108 38 l49 33 -37 10 c-43 12 -166 13 -203 2z"/>
<path d="M5043 870 c-62 -37 -67 -54 -71 -251 l-4 -179 171 0 172 0 -3 98 -3
97 -62 3 c-52 2 -63 6 -63 20 0 40 16 42 267 42 l243 0 0 95 0 95 -307 0
c-288 0 -310 -1 -340 -20z m577 -75 l0 -25 -235 0 c-285 0 -275 5 -275 -120
l0 -80 65 0 65 0 0 -30 0 -30 -101 0 -102 0 5 127 5 126 32 29 31 28 255 0
255 0 0 -25z"/>
<path d="M1208 799 c-28 -16 -23 -65 8 -86 28 -18 47 -12 70 23 29 43 -31 92
-78 63z m56 -28 c10 -16 -5 -41 -24 -41 -19 0 -34 25 -24 41 3 5 14 9 24 9 10
0 21 -4 24 -9z"/>
<path d="M4350 639 c0 -8 20 -35 45 -59 l45 -44 -47 -48 c-26 -26 -45 -50 -42
-52 2 -3 25 15 49 39 25 24 49 44 53 45 5 0 29 -21 53 -46 25 -25 48 -43 52
-40 3 4 -16 28 -42 55 l-48 49 47 45 c26 25 45 51 43 57 -2 6 -25 -12 -53 -40
l-49 -50 -53 52 c-31 30 -53 46 -53 37z"/>
<path d="M5360 540 l0 -100 66 0 65 0 -3 -27 -3 -28 -255 -5 c-235 -5 -255 -6
-254 -22 1 -10 2 -54 3 -99 l1 -81 303 4 c329 4 340 5 386 64 20 25 21 39 21
210 l0 184 -165 0 -165 0 0 -100z m260 -94 c0 -107 -3 -127 -20 -148 -35 -45
-59 -49 -315 -46 l-240 3 0 25 0 25 243 5 c287 6 272 -1 272 122 l0 78 -65 0
-65 0 0 30 0 30 95 0 95 0 0 -124z"/>
<path d="M5886 618 c-34 -48 -13 -108 37 -108 18 0 49 -3 70 -7 37 -6 38 -7
35 -42 l-3 -36 -72 -3 c-56 -2 -73 -6 -73 -17 0 -12 15 -15 68 -15 85 0 112
16 112 66 0 61 -13 74 -78 74 -70 0 -85 9 -80 46 3 29 4 29 77 34 47 3 76 10
79 18 3 9 -17 12 -77 12 -71 0 -82 -2 -95 -22z"/>
<path d="M6147 527 c-39 -119 -43 -137 -28 -137 5 0 17 23 26 50 16 50 17 50
60 50 42 0 43 -1 55 -45 12 -45 26 -63 37 -51 3 3 -13 60 -37 126 -55 157 -63
157 -113 7z m83 -4 c0 -14 -46 -18 -53 -5 -2 4 3 23 11 42 l15 35 13 -30 c7
-16 13 -36 14 -42z"/>
<path d="M6350 515 c0 -104 2 -125 15 -125 12 0 15 19 15 110 l0 110 50 0 49
0 3 -107 c2 -74 7 -108 16 -111 9 -3 12 23 12 108 l0 111 53 -3 52 -3 3 -108
c2 -80 6 -107 15 -104 20 6 22 193 2 223 -15 23 -19 24 -150 24 l-135 0 0
-125z"/>
<path d="M6736 527 c-21 -61 -41 -118 -43 -124 -3 -7 1 -13 9 -13 9 0 21 20
29 48 15 47 15 47 58 47 42 0 44 -1 61 -45 9 -24 23 -46 30 -48 8 -3 11 1 8 9
-2 8 -22 65 -43 127 -27 77 -44 112 -55 112 -10 0 -27 -35 -54 -113z m68 39
c3 -13 9 -31 12 -40 5 -13 -1 -16 -26 -16 -25 0 -31 3 -26 16 3 9 9 27 12 40
8 31 20 31 28 0z"/>
<path d="M6940 515 c0 -77 4 -125 10 -125 8 0 17 177 11 213 -1 4 29 7 66 5
l68 -3 3 -107 c2 -87 6 -108 17 -108 12 0 15 20 15 108 0 137 -4 142 -113 142
l-77 0 0 -125z"/>
<path d="M7172 518 c2 -86 7 -123 16 -126 9 -3 12 23 12 107 l0 111 64 0 c49
0 65 -4 70 -16 3 -9 6 -58 6 -111 0 -71 3 -94 13 -91 8 3 13 35 15 102 4 139
-2 146 -114 146 l-85 0 3 -122z"/>
<path d="M7410 515 c0 -104 2 -125 15 -125 13 0 15 21 15 125 0 104 -2 125
-15 125 -13 0 -15 -21 -15 -125z"/>
<path d="M2740 555 c0 -13 24 -15 155 -15 131 0 155 2 155 15 0 13 -24 15
-155 15 -131 0 -155 -2 -155 -15z"/>
<path d="M1422 460 c-69 -43 -94 -139 -52 -208 27 -44 98 -76 153 -69 108 15
166 134 111 227 -39 66 -144 91 -212 50z m153 -73 c24 -34 19 -94 -10 -122
-70 -71 -190 20 -144 108 31 58 118 66 154 14z"/>
<path d="M1888 393 l-3 -87 -68 82 c-57 69 -72 82 -97 82 l-30 0 0 -140 0
-140 35 0 35 0 0 86 0 86 71 -86 c53 -64 78 -86 95 -86 l24 0 0 145 0 145 -30
0 -29 0 -3 -87z"/>
<path d="M2000 335 l0 -145 140 0 140 0 0 25 c0 24 -1 24 -107 27 l-108 3 -3
118 -3 117 -29 0 -30 0 0 -145z"/>
<path d="M2349 386 c42 -78 51 -102 51 -145 l0 -51 35 0 35 0 0 52 c0 43 8 67
50 145 l51 93 -34 0 c-31 0 -35 -4 -66 -67 l-33 -68 -34 68 c-33 64 -36 67
-70 67 l-35 0 50 -94z"/>
<path d="M2813 464 c-46 -23 -73 -71 -73 -130 0 -62 27 -107 79 -134 107 -54
221 15 221 134 0 93 -56 146 -152 146 -24 0 -58 -8 -75 -16z m112 -48 c37 -16
55 -42 55 -81 0 -57 -36 -94 -92 -95 -28 0 -42 7 -62 31 -42 50 -28 120 29
145 37 16 30 16 70 0z"/>
<path d="M3278 394 l-3 -86 -68 81 c-57 68 -73 81 -97 81 l-30 0 0 -140 0
-140 35 0 34 0 3 85 3 85 69 -85 c51 -64 74 -85 92 -85 l24 0 0 145 0 145 -30
0 -29 0 -3 -86z"/>
<path d="M3460 462 c-49 -24 -84 -96 -75 -152 12 -71 81 -130 152 -130 57 0
143 62 143 105 0 15 -56 2 -82 -20 -34 -28 -66 -32 -107 -10 -32 16 -41 33
-41 76 0 43 17 69 56 85 30 12 39 12 69 0 19 -8 35 -20 35 -25 0 -6 16 -11 35
-11 l36 0 -16 30 c-34 65 -130 90 -205 52z"/>
<path d="M3720 330 l0 -140 105 0 c63 0 106 4 106 10 1 6 2 16 3 23 1 8 -22
14 -74 17 l-75 5 0 30 0 30 68 3 c64 3 67 4 67 27 0 24 -2 25 -70 25 l-70 0 0
30 0 30 75 0 c73 0 75 1 75 25 l0 25 -105 0 -105 0 0 -140z"/>
<path d="M5910 300 c0 -5 5 -10 10 -10 6 0 10 5 10 10 0 6 -4 10 -10 10 -5 0
-10 -4 -10 -10z"/>
<path d="M5950 303 c0 -5 5 -15 10 -23 8 -12 10 -11 10 8 0 12 -4 22 -10 22
-5 0 -10 -3 -10 -7z"/>
<path d="M6290 306 c0 -2 14 -6 30 -8 17 -3 30 -1 30 4 0 4 -13 8 -30 8 -16 0
-30 -2 -30 -4z"/>
<path d="M6653 303 c60 -5 62 -23 2 -23 -48 0 -44 4 -60 -74 -2 -11 0 -15 5
-10 5 5 10 23 12 39 3 28 6 30 47 33 36 3 43 1 38 -12 -4 -9 -2 -16 3 -16 6 0
10 16 10 35 l0 35 -52 -2 -53 -2 48 -3z"/>
<path d="M6983 302 c-55 -5 -37 -17 24 -16 l58 2 -50 -7 c-27 -5 -44 -9 -36
-9 8 -1 11 -5 8 -9 -4 -3 1 -12 11 -20 12 -10 13 -12 2 -8 -9 3 -24 -2 -35
-10 -19 -15 -19 -16 3 -5 34 17 39 4 5 -14 -15 -8 -23 -15 -17 -16 5 0 19 7
30 15 25 19 38 19 30 -1 -3 -8 -2 -12 4 -9 6 3 10 14 10 23 1 16 2 16 14 0 7
-10 19 -18 27 -18 8 0 4 7 -9 16 -19 13 -21 18 -10 32 11 13 10 14 -8 4 -12
-6 -24 -8 -28 -5 -13 13 -5 22 21 25 14 2 28 8 30 14 4 13 -36 21 -84 16z"/>
<path d="M7318 260 c-2 -38 0 -50 11 -50 11 0 9 -4 -5 -16 -13 -11 -9 -10 14
3 27 14 36 15 52 5 11 -6 25 -12 32 -11 7 0 4 4 -7 9 -18 8 -18 9 5 10 14 1
19 4 13 7 -8 3 -13 23 -13 49 l0 44 -49 0 -49 0 -4 -50z m75 33 c-13 -2 -33
-2 -45 0 -13 2 -3 4 22 4 25 0 35 -2 23 -4z m0 -20 c-13 -2 -33 -2 -45 0 -13
2 -3 4 22 4 25 0 35 -2 23 -4z m17 -33 c0 -16 -7 -20 -38 -20 -31 0 -38 4 -38
20 0 16 7 20 38 20 31 0 38 -4 38 -20z"/>
<path d="M6246 255 c3 -30 0 -45 -8 -45 -6 0 -9 -2 -6 -5 3 -3 11 -3 19 0 10
4 13 18 11 50 -2 25 -7 45 -12 45 -4 0 -6 -20 -4 -45z"/>
<path d="M6292 270 c0 -14 2 -19 5 -12 2 6 2 18 0 25 -3 6 -5 1 -5 -13z"/>
<path d="M5882 228 l2 -53 3 48 c4 51 21 67 18 17 -1 -16 2 -30 7 -30 5 0 6
-4 3 -10 -3 -5 -2 -10 4 -10 11 0 25 39 17 47 -3 4 -6 -2 -7 -13 0 -17 -1 -16
-9 4 -5 12 -7 29 -4 37 4 10 0 15 -15 15 -19 0 -21 -5 -19 -52z"/>
<path d="M6330 268 c0 -9 5 -20 10 -23 13 -8 13 -42 0 -48 -6 -3 -5 -4 2 -3
19 4 21 43 4 68 -13 18 -16 19 -16 6z"/>
<path d="M5976 253 c-6 -14 -5 -15 5 -6 7 7 10 15 7 18 -3 3 -9 -2 -12 -12z"/>
<path d="M6635 217 c1 -18 9 -23 43 -25 35 -3 42 0 41 15 0 10 -3 13 -6 6 -2
-7 -18 -13 -35 -13 -22 0 -29 4 -25 14 3 8 0 17 -7 19 -8 3 -12 -3 -11 -16z"/>
<path d="M6293 223 c9 -2 25 -2 35 0 9 3 1 5 -18 5 -19 0 -27 -2 -17 -5z"/>
</g>
</svg>
